<?xml version="1.0" encoding="UTF-8" standalone="no"?>
<!DOCTYPE svg PUBLIC "-//W3C//DTD SVG 1.1//EN"
 "http://www.w3.org/Graphics/SVG/1.1/DTD/svg11.dtd">
<!-- Generated by graphviz version 2.40.1 (20161225.0304)
 -->
<!-- Title: dependencies Pages: 1 -->
<svg width="2538pt" height="284pt"
 viewBox="0.00 0.00 2538.00 284.00" xmlns="http://www.w3.org/2000/svg" xmlns:xlink="http://www.w3.org/1999/xlink">
<g id="graph0" class="graph" transform="scale(1 1) rotate(0) translate(4 280)">
<title>dependencies</title>
<polygon fill="#ffffff" stroke="transparent" points="-4,4 -4,-280 2534,-280 2534,4 -4,4"/>
<text text-anchor="start" x="1244.0091" y="-42.4" font-family="sans-serif" font-weight="bold" font-size="14.00" fill="#000000">Legend</text>
<polygon fill="#ffffb3" stroke="transparent" points="1031,-10 1031,-30 1051,-30 1051,-10 1031,-10"/>
<text text-anchor="start" x="1054.629" y="-15.4" font-family="sans-serif" font-size="14.00" fill="#000000"> &#160;Declarations</text>
<polygon fill="#8dd3c7" stroke="transparent" points="1144,-10 1144,-30 1164,-30 1164,-10 1144,-10"/>
<text text-anchor="start" x="1167.7251" y="-15.4" font-family="sans-serif" font-size="14.00" fill="#000000"> &#160;Module</text>
<polygon fill="#80b1d3" stroke="transparent" points="1230,-10 1230,-30 1250,-30 1250,-10 1230,-10"/>
<text text-anchor="start" x="1253.7812" y="-15.4" font-family="sans-serif" font-size="14.00" fill="#000000"> &#160;Bootstrap</text>
<polygon fill="#fdb462" stroke="transparent" points="1327,-10 1327,-30 1347,-30 1347,-10 1327,-10"/>
<text text-anchor="start" x="1350.6732" y="-15.4" font-family="sans-serif" font-size="14.00" fill="#000000"> &#160;Providers</text>
<polygon fill="#fb8072" stroke="transparent" points="1423,-10 1423,-30 1443,-30 1443,-10 1423,-10"/>
<text text-anchor="start" x="1446.7258" y="-15.4" font-family="sans-serif" font-size="14.00" fill="#000000"> &#160;Exports</text>
<g id="clust1" class="cluster">
<title>cluster_AppModule</title>
<polygon fill="none" stroke="#000000" stroke-dasharray="1,5" points="8,-70 8,-268 2522,-268 2522,-70 8,-70"/>
</g>
<g id="clust2" class="cluster">
<title>cluster_AppModule_declarations</title>
<polygon fill="none" stroke="#000000" points="554,-78 554,-130 2514,-130 2514,-78 554,-78"/>
</g>
<g id="clust16" class="cluster">
<title>cluster_AppModule_bootstrap</title>
<polygon fill="none" stroke="#000000" points="1167,-208 1167,-260 1291,-260 1291,-208 1167,-208"/>
</g>
<g id="clust17" class="cluster">
<title>cluster_AppModule_providers</title>
<polygon fill="none" stroke="#000000" points="16,-78 16,-130 546,-130 546,-78 16,-78"/>
</g>
<!-- AppComponent -->
<g id="node1" class="node">
<title>AppComponent</title>
<polygon fill="#ffffb3" stroke="#000000" points="2505.9399,-122 2400.0601,-122 2400.0601,-86 2505.9399,-86 2505.9399,-122"/>
<text text-anchor="middle" x="2453" y="-99.8" font-family="Times,serif" font-size="14.00" fill="#000000">AppComponent</text>
</g>
<!-- AppModule -->
<g id="node12" class="node">
<title>AppModule</title>
<polygon fill="#8dd3c7" stroke="#000000" points="1270.6571,-187 1267.6571,-191 1246.6571,-191 1243.6571,-187 1187.3429,-187 1187.3429,-151 1270.6571,-151 1270.6571,-187"/>
<text text-anchor="middle" x="1229" y="-164.8" font-family="Times,serif" font-size="14.00" fill="#000000">AppModule</text>
</g>
<!-- AppComponent&#45;&gt;AppModule -->
<g id="edge1" class="edge">
<title>AppComponent&#45;&gt;AppModule</title>
<path fill="none" stroke="#000000" d="M2453,-122.0908C2453,-145.1328 2453,-182 2453,-182 2453,-182 1280.7788,-182 1280.7788,-182"/>
<polygon fill="#000000" stroke="#000000" points="1280.7788,-178.5001 1270.7788,-182 1280.7787,-185.5001 1280.7788,-178.5001"/>
</g>
<!-- ModalAddGoalComponent -->
<g id="node2" class="node">
<title>ModalAddGoalComponent</title>
<polygon fill="#ffffb3" stroke="#000000" points="2382.7007,-122 2213.2993,-122 2213.2993,-86 2382.7007,-86 2382.7007,-122"/>
<text text-anchor="middle" x="2298" y="-99.8" font-family="Times,serif" font-size="14.00" fill="#000000">ModalAddGoalComponent</text>
</g>
<!-- ModalAddGoalComponent&#45;&gt;AppModule -->
<g id="edge2" class="edge">
<title>ModalAddGoalComponent&#45;&gt;AppModule</title>
<path fill="none" stroke="#000000" d="M2298,-122.0449C2298,-143.6623 2298,-177 2298,-177 2298,-177 1280.9061,-177 1280.9061,-177"/>
<polygon fill="#000000" stroke="#000000" points="1280.9061,-173.5001 1270.9061,-177 1280.906,-180.5001 1280.9061,-173.5001"/>
</g>
<!-- ModalAddInfoComponent -->
<g id="node3" class="node">
<title>ModalAddInfoComponent</title>
<polygon fill="#ffffb3" stroke="#000000" points="2195.8103,-122 2030.1897,-122 2030.1897,-86 2195.8103,-86 2195.8103,-122"/>
<text text-anchor="middle" x="2113" y="-99.8" font-family="Times,serif" font-size="14.00" fill="#000000">ModalAddInfoComponent</text>
</g>
<!-- ModalAddInfoComponent&#45;&gt;AppModule -->
<g id="edge3" class="edge">
<title>ModalAddInfoComponent&#45;&gt;AppModule</title>
<path fill="none" stroke="#000000" d="M2113,-122.2228C2113,-142.3652 2113,-172 2113,-172 2113,-172 1280.7465,-172 1280.7465,-172"/>
<polygon fill="#000000" stroke="#000000" points="1280.7465,-168.5001 1270.7465,-172 1280.7465,-175.5001 1280.7465,-168.5001"/>
</g>
<!-- ModalAddNoteComponent -->
<g id="node4" class="node">
<title>ModalAddNoteComponent</title>
<polygon fill="#ffffb3" stroke="#000000" points="2012.7007,-122 1843.2993,-122 1843.2993,-86 2012.7007,-86 2012.7007,-122"/>
<text text-anchor="middle" x="1928" y="-99.8" font-family="Times,serif" font-size="14.00" fill="#000000">ModalAddNoteComponent</text>
</g>
<!-- ModalAddNoteComponent&#45;&gt;AppModule -->
<g id="edge4" class="edge">
<title>ModalAddNoteComponent&#45;&gt;AppModule</title>
<path fill="none" stroke="#000000" d="M1928,-122.2222C1928,-140.8285 1928,-167 1928,-167 1928,-167 1280.8915,-167 1280.8915,-167"/>
<polygon fill="#000000" stroke="#000000" points="1280.8916,-163.5001 1270.8915,-167 1280.8915,-170.5001 1280.8916,-163.5001"/>
</g>
<!-- ModalDisplayGoalComponent -->
<g id="node5" class="node">
<title>ModalDisplayGoalComponent</title>
<polygon fill="#ffffb3" stroke="#000000" points="1825.1413,-122 1636.8587,-122 1636.8587,-86 1825.1413,-86 1825.1413,-122"/>
<text text-anchor="middle" x="1731" y="-99.8" font-family="Times,serif" font-size="14.00" fill="#000000">ModalDisplayGoalComponent</text>
</g>
<!-- ModalDisplayGoalComponent&#45;&gt;AppModule -->
<g id="edge5" class="edge">
<title>ModalDisplayGoalComponent&#45;&gt;AppModule</title>
<path fill="none" stroke="#000000" d="M1731,-122.0336C1731,-139.0597 1731,-162 1731,-162 1731,-162 1280.9368,-162 1280.9368,-162"/>
<polygon fill="#000000" stroke="#000000" points="1280.9368,-158.5001 1270.9368,-162 1280.9368,-165.5001 1280.9368,-158.5001"/>
</g>
<!-- ModalDisplayNoteComponent -->
<g id="node6" class="node">
<title>ModalDisplayNoteComponent</title>
<polygon fill="#ffffb3" stroke="#000000" points="1618.1413,-122 1429.8587,-122 1429.8587,-86 1618.1413,-86 1618.1413,-122"/>
<text text-anchor="middle" x="1524" y="-99.8" font-family="Times,serif" font-size="14.00" fill="#000000">ModalDisplayNoteComponent</text>
</g>
<!-- ModalDisplayNoteComponent&#45;&gt;AppModule -->
<g id="edge6" class="edge">
<title>ModalDisplayNoteComponent&#45;&gt;AppModule</title>
<path fill="none" stroke="#000000" d="M1524,-122.2396C1524,-137.5706 1524,-157 1524,-157 1524,-157 1280.953,-157 1280.953,-157"/>
<polygon fill="#000000" stroke="#000000" points="1280.9531,-153.5001 1270.953,-157 1280.953,-160.5001 1280.9531,-153.5001"/>
</g>
<!-- ModalEditProfileComponent -->
<g id="node7" class="node">
<title>ModalEditProfileComponent</title>
<polygon fill="#ffffb3" stroke="#000000" points="1411.8159,-122 1232.1841,-122 1232.1841,-86 1411.8159,-86 1411.8159,-122"/>
<text text-anchor="middle" x="1322" y="-99.8" font-family="Times,serif" font-size="14.00" fill="#000000">ModalEditProfileComponent</text>
</g>
<!-- ModalEditProfileComponent&#45;&gt;AppModule -->
<g id="edge7" class="edge">
<title>ModalEditProfileComponent&#45;&gt;AppModule</title>
<path fill="none" stroke="#000000" d="M1251.5852,-122.1061C1251.5852,-122.1061 1251.5852,-140.991 1251.5852,-140.991"/>
<polygon fill="#000000" stroke="#000000" points="1248.0853,-140.9909 1251.5852,-150.991 1255.0853,-140.991 1248.0853,-140.9909"/>
</g>
<!-- ModalSignInComponent -->
<g id="node8" class="node">
<title>ModalSignInComponent</title>
<polygon fill="#ffffb3" stroke="#000000" points="1214.7162,-122 1059.2838,-122 1059.2838,-86 1214.7162,-86 1214.7162,-122"/>
<text text-anchor="middle" x="1137" y="-99.8" font-family="Times,serif" font-size="14.00" fill="#000000">ModalSignInComponent</text>
</g>
<!-- ModalSignInComponent&#45;&gt;AppModule -->
<g id="edge8" class="edge">
<title>ModalSignInComponent&#45;&gt;AppModule</title>
<path fill="none" stroke="#000000" d="M1200.8899,-122.1061C1200.8899,-122.1061 1200.8899,-140.991 1200.8899,-140.991"/>
<polygon fill="#000000" stroke="#000000" points="1197.39,-140.9909 1200.8899,-150.991 1204.39,-140.991 1197.39,-140.9909"/>
</g>
<!-- PageHomeComponent -->
<g id="node9" class="node">
<title>PageHomeComponent</title>
<polygon fill="#ffffb3" stroke="#000000" points="1041.2562,-122 898.7438,-122 898.7438,-86 1041.2562,-86 1041.2562,-122"/>
<text text-anchor="middle" x="970" y="-99.8" font-family="Times,serif" font-size="14.00" fill="#000000">PageHomeComponent</text>
</g>
<!-- PageHomeComponent&#45;&gt;AppModule -->
<g id="edge9" class="edge">
<title>PageHomeComponent&#45;&gt;AppModule</title>
<path fill="none" stroke="#000000" d="M970,-122.2396C970,-137.5706 970,-157 970,-157 970,-157 1177.0993,-157 1177.0993,-157"/>
<polygon fill="#000000" stroke="#000000" points="1177.0994,-160.5001 1187.0993,-157 1177.0993,-153.5001 1177.0994,-160.5001"/>
</g>
<!-- PageRecoverComponent -->
<g id="node10" class="node">
<title>PageRecoverComponent</title>
<polygon fill="#ffffb3" stroke="#000000" points="880.6853,-122 725.3147,-122 725.3147,-86 880.6853,-86 880.6853,-122"/>
<text text-anchor="middle" x="803" y="-99.8" font-family="Times,serif" font-size="14.00" fill="#000000">PageRecoverComponent</text>
</g>
<!-- PageRecoverComponent&#45;&gt;AppModule -->
<g id="edge10" class="edge">
<title>PageRecoverComponent&#45;&gt;AppModule</title>
<path fill="none" stroke="#000000" d="M803,-122.0336C803,-139.0597 803,-162 803,-162 803,-162 1176.9876,-162 1176.9876,-162"/>
<polygon fill="#000000" stroke="#000000" points="1176.9877,-165.5001 1186.9876,-162 1176.9876,-158.5001 1176.9877,-165.5001"/>
</g>
<!-- PageVerifyComponent -->
<g id="node11" class="node">
<title>PageVerifyComponent</title>
<polygon fill="#ffffb3" stroke="#000000" points="707.5772,-122 562.4228,-122 562.4228,-86 707.5772,-86 707.5772,-122"/>
<text text-anchor="middle" x="635" y="-99.8" font-family="Times,serif" font-size="14.00" fill="#000000">PageVerifyComponent</text>
</g>
<!-- PageVerifyComponent&#45;&gt;AppModule -->
<g id="edge11" class="edge">
<title>PageVerifyComponent&#45;&gt;AppModule</title>
<path fill="none" stroke="#000000" d="M635,-122.2222C635,-140.8285 635,-167 635,-167 635,-167 1177.2311,-167 1177.2311,-167"/>
<polygon fill="#000000" stroke="#000000" points="1177.2311,-170.5001 1187.2311,-167 1177.231,-163.5001 1177.2311,-170.5001"/>
</g>
<!-- AppComponent  -->
<g id="node13" class="node">
<title>AppComponent </title>
<polygon fill="#80b1d3" stroke="#000000" points="1283.439,-252 1174.561,-252 1174.561,-216 1283.439,-216 1283.439,-252"/>
<text text-anchor="middle" x="1229" y="-229.8" font-family="Times,serif" font-size="14.00" fill="#000000">AppComponent </text>
</g>
<!-- AppModule&#45;&gt;AppComponent  -->
<g id="edge12" class="edge">
<title>AppModule&#45;&gt;AppComponent </title>
<path fill="none" stroke="#000000" stroke-dasharray="1,5" d="M1229,-187.1061C1229,-187.1061 1229,-205.991 1229,-205.991"/>
<polygon fill="#000000" stroke="#000000" points="1225.5001,-205.9909 1229,-215.991 1232.5001,-205.991 1225.5001,-205.9909"/>
</g>
<!-- ApiServiceService -->
<g id="node14" class="node">
<title>ApiServiceService</title>
<ellipse fill="#fdb462" stroke="#000000" cx="455" cy="-104" rx="83.3616" ry="18"/>
<text text-anchor="middle" x="455" y="-99.8" font-family="Times,serif" font-size="14.00" fill="#000000">ApiServiceService</text>
</g>
<!-- ApiServiceService&#45;&gt;AppModule -->
<g id="edge13" class="edge">
<title>ApiServiceService&#45;&gt;AppModule</title>
<path fill="none" stroke="#000000" d="M455,-122.2228C455,-142.3652 455,-172 455,-172 455,-172 1177.112,-172 1177.112,-172"/>
<polygon fill="#000000" stroke="#000000" points="1177.112,-175.5001 1187.112,-172 1177.1119,-168.5001 1177.112,-175.5001"/>
</g>
<!-- NotificationsService -->
<g id="node15" class="node">
<title>NotificationsService</title>
<ellipse fill="#fdb462" stroke="#000000" cx="263" cy="-104" rx="90.3217" ry="18"/>
<text text-anchor="middle" x="263" y="-99.8" font-family="Times,serif" font-size="14.00" fill="#000000">NotificationsService</text>
</g>
<!-- NotificationsService&#45;&gt;AppModule -->
<g id="edge14" class="edge">
<title>NotificationsService&#45;&gt;AppModule</title>
<path fill="none" stroke="#000000" d="M263,-122.0449C263,-143.6623 263,-177 263,-177 263,-177 1177.1821,-177 1177.1821,-177"/>
<polygon fill="#000000" stroke="#000000" points="1177.1822,-180.5001 1187.1821,-177 1177.1821,-173.5001 1177.1822,-180.5001"/>
</g>
<!-- VerifyService -->
<g id="node16" class="node">
<title>VerifyService</title>
<ellipse fill="#fdb462" stroke="#000000" cx="89" cy="-104" rx="65.3839" ry="18"/>
<text text-anchor="middle" x="89" y="-99.8" font-family="Times,serif" font-size="14.00" fill="#000000">VerifyService</text>
</g>
<!-- VerifyService&#45;&gt;AppModule -->
<g id="edge15" class="edge">
<title>VerifyService&#45;&gt;AppModule</title>
<path fill="none" stroke="#000000" d="M89,-122.0908C89,-145.1328 89,-182 89,-182 89,-182 1177.0748,-182 1177.0748,-182"/>
<polygon fill="#000000" stroke="#000000" points="1177.0748,-185.5001 1187.0748,-182 1177.0748,-178.5001 1177.0748,-185.5001"/>
</g>
</g>
</svg>
